<svg width="40" height="40" viewBox="0 0 40 40" fill="none" xmlns="http://www.w3.org/2000/svg">
<path d="M40 20.8333C40 27.7369 34.4618 33.3333 27.6301 33.3333C20.7983 33.3333 15.2601 27.7369 15.2601 20.8333C15.2601 13.9298 20.7983 8.33333 27.6301 8.33333C34.4618 8.33333 40 13.9298 40 20.8333Z" fill="#F79F1A"/>
<path d="M24.7398 20.8333C24.7398 27.7369 19.2016 33.3333 12.3699 33.3333C5.5382 33.3333 0 27.7369 0 20.8333C0 13.9298 5.5382 8.33333 12.3699 8.33333C19.2016 8.33333 24.7398 13.9298 24.7398 20.8333Z" fill="#E60019"/>
<path d="M20 10.9932C17.1138 13.2816 15.2611 16.8375 15.2611 20.8322C15.2611 24.8268 17.1138 28.3855 20 30.6738C22.8862 28.3855 24.7389 24.8268 24.7389 20.8322C24.7389 16.8375 22.8862 13.2816 20 10.9932Z" fill="#FF5700"/>
</svg>
