<svg width="40" height="40" viewBox="0 0 40 40" fill="none" xmlns="http://www.w3.org/2000/svg">
<path d="M34 14C37.3137 14 40 16.6863 40 20C40 23.3137 37.3137 26 34 26L6 26C2.68629 26 -1.44847e-07 23.3137 0 20C1.44847e-07 16.6863 2.68629 14 6 14L34 14Z" fill="#7094F4"/>
<path d="M14.0001 6C14.0001 2.68629 16.6864 0 20.0001 0C23.3138 0 26.0001 2.68629 26.0001 6V34C26.0001 37.3137 23.3138 40 20.0001 40C16.6864 40 14.0001 37.3137 14.0001 34V6Z" fill="#7094F4"/>
<path d="M14.0001 6C14.0001 2.68629 16.6864 0 20.0001 0C23.3138 0 26.0001 2.68629 26.0001 6V34C26.0001 37.3137 23.3138 40 20.0001 40C16.6864 40 14.0001 37.3137 14.0001 34V6Z" fill="white" fill-opacity="0.4" style="mix-blend-mode:screen"/>
<path d="M34.1431 25.6575C36.4863 28.0007 36.4863 31.7999 34.1431 34.1431C31.7999 36.4863 28.0008 36.4863 25.6576 34.1431L5.85794 14.3435C3.51472 12.0002 3.51472 8.20113 5.85794 5.85791C8.20116 3.51469 12.0003 3.51469 14.3435 5.85791L34.1431 25.6575Z" fill="#7094F4"/>
<path d="M34.1431 25.6575C36.4863 28.0007 36.4863 31.7999 34.1431 34.1431C31.7999 36.4863 28.0008 36.4863 25.6576 34.1431L5.85794 14.3435C3.51472 12.0002 3.51472 8.20113 5.85794 5.85791C8.20116 3.51469 12.0003 3.51469 14.3435 5.85791L34.1431 25.6575Z" fill="white" fill-opacity="0.2" style="mix-blend-mode:soft-light"/>
<path d="M25.6576 5.85791C28.0008 3.51469 31.7999 3.51469 34.1431 5.85791C36.4863 8.20113 36.4863 12.0002 34.1431 14.3435L14.3435 34.1431C12.0003 36.4863 8.20116 36.4863 5.85794 34.1431C3.51472 31.7999 3.51472 28.0007 5.85794 25.6575L25.6576 5.85791Z" fill="#7094F4"/>
<path d="M25.6576 5.85791C28.0008 3.51469 31.7999 3.51469 34.1431 5.85791C36.4863 8.20113 36.4863 12.0002 34.1431 14.3435L14.3435 34.1431C12.0003 36.4863 8.20116 36.4863 5.85794 34.1431C3.51472 31.7999 3.51472 28.0007 5.85794 25.6575L25.6576 5.85791Z" fill="white" fill-opacity="0.3" style="mix-blend-mode:overlay"/>
<path fill-rule="evenodd" clip-rule="evenodd" d="M19.9999 6C19.5581 6 19.1999 6.35817 19.1999 6.8V17.2961C19.1999 17.5384 19.1999 17.6596 19.152 17.7157C19.1104 17.7644 19.0481 17.7902 18.9842 17.7852C18.9107 17.7794 18.825 17.6937 18.6537 17.5224L11.2318 10.1005C10.9194 9.78809 10.4129 9.78809 10.1005 10.1005C9.78803 10.4129 9.78803 10.9195 10.1005 11.2319L17.5223 18.6537C17.6936 18.8251 17.7793 18.9108 17.7851 18.9843C17.7901 19.0481 17.7643 19.1105 17.7156 19.1521C17.6595 19.2 17.5383 19.2 17.296 19.2H6.79994C6.35811 19.2 5.99994 19.5582 5.99994 20C5.99994 20.4418 6.35811 20.8 6.79994 20.8H17.296C17.5384 20.8 17.6595 20.8 17.7156 20.8479C17.7643 20.8895 17.7901 20.9519 17.7851 21.0157C17.7793 21.0892 17.6937 21.1749 17.5223 21.3463L10.1004 28.7681C9.78803 29.0805 9.78803 29.5871 10.1004 29.8995C10.4129 30.2119 10.9194 30.2119 11.2318 29.8995L18.6537 22.4777C18.825 22.3063 18.9107 22.2206 18.9842 22.2148C19.0481 22.2098 19.1104 22.2356 19.152 22.2843C19.1999 22.3404 19.1999 22.4616 19.1999 22.7039V33.2C19.1999 33.6418 19.5581 34 19.9999 34C20.4418 34 20.7999 33.6418 20.7999 33.2V22.7039C20.7999 22.4616 20.7999 22.3404 20.8479 22.2843C20.8894 22.2356 20.9518 22.2098 21.0156 22.2148C21.0892 22.2206 21.1749 22.3063 21.3462 22.4776L28.7681 29.8995C29.0805 30.2119 29.587 30.2119 29.8994 29.8995C30.2119 29.5871 30.2119 29.0806 29.8994 28.7681L22.4776 21.3463C22.3062 21.1749 22.2206 21.0893 22.2148 21.0157C22.2097 20.9519 22.2356 20.8895 22.2843 20.8479C22.3404 20.8 22.4615 20.8 22.7039 20.8H33.1999C33.6418 20.8 33.9999 20.4418 33.9999 20C33.9999 19.5582 33.6418 19.2 33.1999 19.2H22.7039C22.4615 19.2 22.3404 19.2 22.2843 19.1521C22.2356 19.1105 22.2098 19.0481 22.2148 18.9843C22.2206 18.9108 22.3062 18.8251 22.4776 18.6537L29.8994 11.2319C30.2119 10.9195 30.2119 10.4129 29.8994 10.1005C29.587 9.78809 29.0805 9.78809 28.7681 10.1005L21.3462 17.5224C21.1749 17.6937 21.0892 17.7794 21.0156 17.7852C20.9518 17.7902 20.8894 17.7644 20.8479 17.7157C20.7999 17.6596 20.7999 17.5384 20.7999 17.2961V6.8C20.7999 6.35817 20.4418 6 19.9999 6Z" fill="white"/>
</svg>
